<svg width="800px" height="800px" viewBox="0 0 32 32" fill="none" xmlns="http://www.w3.org/2000/svg">
    <g id="viber">
    <path fill-rule="evenodd" clip-rule="evenodd" d="M30 15.3785C30 6.20699 26.7692 2 16 2C5.23077 2 2 6.20699 2 15.3785C2 21.9055 3.63629 25.9182 8.46154 27.6895V30.7774C8.46154 31.9141 9.88769 32.4332 10.6264 31.5656L13.1164 28.6411C14.0113 28.7185 14.9713 28.7569 16 28.7569C26.7692 28.7569 30 24.5499 30 15.3785ZM13.7113 26.5316C14.4251 26.5882 15.1872 26.6164 16 26.6164C25.1124 26.6164 27.8462 23.0825 27.8462 15.3785C27.8462 7.67443 25.1124 4.14055 16 4.14055C6.88757 4.14055 4.15385 7.67443 4.15385 15.3785C4.15385 20.8239 5.51965 24.1859 9.53846 25.6891V30.2639C9.53846 30.6627 10.0389 30.8449 10.2981 30.5404L13.7113 26.5316Z" fill="#BFC8D0"/>
    <path d="M16 25.8548C15.1766 25.8548 14.4047 25.8262 13.6815 25.7685L10.224 29.845C9.96145 30.1546 9.45455 29.9693 9.45455 29.5638V24.9119C5.38354 23.3834 4 19.9647 4 14.4274C4 6.59346 6.76923 3 16 3C25.2308 3 28 6.59346 28 14.4274C28 22.2613 25.2308 25.8548 16 25.8548Z" fill="#9179EE"/>
    <path fill-rule="evenodd" clip-rule="evenodd" d="M30 14.3785C30 5.20699 26.7692 1 16 1C5.23077 1 2 5.20699 2 14.3785C2 20.9055 3.63629 24.9182 8.46154 26.6895V29.7774C8.46154 30.9141 9.88769 31.4332 10.6264 30.5656L13.1164 27.6411C14.0113 27.7185 14.9713 27.7569 16 27.7569C26.7692 27.7569 30 23.5499 30 14.3785ZM13.7113 25.5316C14.4251 25.5882 15.1872 25.6164 16 25.6164C25.1124 25.6164 27.8462 22.0825 27.8462 14.3785C27.8462 6.67443 25.1124 3.14055 16 3.14055C6.88757 3.14055 4.15385 6.67443 4.15385 14.3785C4.15385 19.8239 5.51965 23.1859 9.53846 24.6891V29.2639C9.53846 29.6627 10.0389 29.8449 10.2981 29.5404L13.7113 25.5316Z" fill="white"/>
    <path d="M11.5432 12.1345L11.5026 12.157L11.4668 12.1866C11.1902 12.4154 10.7756 13.0434 11.1388 13.8197C11.4414 14.4665 12.1157 15.7874 13.3005 16.7826C14.4592 17.756 15.6965 18.2795 16.5092 18.4509L16.5603 18.4617H16.6069C16.6091 18.4619 16.614 18.4624 16.6219 18.4636C16.6412 18.4663 16.6645 18.4703 16.7012 18.4767L16.7874 17.9842L16.7012 18.4767C16.7075 18.4778 16.714 18.479 16.7208 18.4802C16.9709 18.5244 17.5704 18.6304 18.0729 18.1297C18.3954 17.8083 18.6898 17.4732 18.8165 17.3225C18.9055 17.2413 19.1956 17.0731 19.5626 17.1972C20.2576 17.4321 21.0839 17.9621 21.4833 18.2308C21.7925 18.439 22.4924 18.9404 22.8079 19.1682L22.8082 19.1684C22.8344 19.1873 22.8959 19.2493 22.9291 19.3354C22.9557 19.4042 22.97 19.4988 22.9061 19.6357C22.7875 19.8895 22.4266 20.374 21.9378 20.7978C21.4401 21.2294 20.9222 21.5 20.5072 21.5C20.5087 21.5 20.5072 21.4998 20.5025 21.4992C20.484 21.4967 20.4153 21.4874 20.2792 21.4568C20.1262 21.4225 19.9195 21.3686 19.6669 21.2926C19.1622 21.1407 18.485 20.904 17.7029 20.5675C16.1375 19.8941 14.1668 18.8277 12.3218 17.2572C11.1613 16.2694 10.0664 14.9036 9.2138 13.6251C8.35407 12.3358 7.77896 11.1932 7.62244 10.6655L7.61148 10.6285L7.595 10.5937C7.55603 10.5114 7.50112 10.3355 7.50002 10.136C7.49895 9.94333 7.54725 9.75923 7.67465 9.60657C8.09467 9.10322 8.53938 8.60859 9.52049 8.13395C9.61188 8.08974 9.75504 8.05076 9.89575 8.04849C10.04 8.04617 10.1152 8.082 10.1452 8.10835C10.5206 8.43751 11.1025 9.01857 11.4945 9.51513C11.6971 9.77164 11.9418 10.0975 12.1458 10.3806C12.2478 10.5222 12.3377 10.6506 12.4062 10.7527C12.4405 10.8039 12.4679 10.8462 12.4881 10.8788C12.5019 10.9012 12.5093 10.9143 12.5124 10.9199C12.5141 10.9256 12.5218 10.9498 12.5286 10.9939C12.5371 11.0494 12.5411 11.1177 12.5354 11.1891C12.5235 11.3351 12.4755 11.4524 12.3892 11.5315C12.0962 11.7998 11.699 12.0482 11.5432 12.1345ZM16.2766 6.51613C16.2769 6.51585 16.2772 6.51557 16.2775 6.51527C16.2847 6.50852 16.2994 6.5 16.3226 6.5C20.3145 6.5 23.4984 9.53785 23.5 13.223C23.4994 13.2239 23.4983 13.2251 23.4967 13.2267C23.4895 13.2334 23.4747 13.2419 23.4516 13.2419C23.4285 13.2419 23.4137 13.2334 23.4065 13.2267C23.4049 13.2251 23.4039 13.2239 23.4032 13.223C23.4016 9.49946 20.2032 6.53226 16.3226 6.53226C16.2994 6.53226 16.2847 6.52374 16.2775 6.51699C16.2772 6.51669 16.2769 6.5164 16.2766 6.51613ZM16.2775 10.646C16.2772 10.6457 16.2769 10.6454 16.2766 10.6452C16.2769 10.6449 16.2772 10.6446 16.2775 10.6443C16.2847 10.6376 16.2994 10.629 16.3226 10.629C17.8916 10.629 19.1113 11.8182 19.1129 13.223C19.1123 13.2239 19.1112 13.2251 19.1096 13.2267C19.1024 13.2334 19.0877 13.2419 19.0645 13.2419C19.0414 13.2419 19.0266 13.2334 19.0194 13.2267C19.0178 13.2251 19.0168 13.2239 19.0161 13.223C19.0145 11.7799 17.7803 10.6613 16.3226 10.6613C16.2994 10.6613 16.2847 10.6528 16.2775 10.646ZM16.2775 8.5815C16.2772 8.58121 16.2769 8.58092 16.2766 8.58065C16.2769 8.58037 16.2772 8.58008 16.2775 8.57979C16.2847 8.57304 16.2994 8.56452 16.3226 8.56452C19.1031 8.56452 21.3048 10.678 21.3065 13.223C21.3058 13.2239 21.3048 13.2251 21.3032 13.2267C21.296 13.2334 21.2812 13.2419 21.2581 13.2419C21.2349 13.2419 21.2201 13.2334 21.213 13.2267C21.2114 13.2251 21.2103 13.2239 21.2097 13.223C21.2081 10.6397 18.9917 8.59677 16.3226 8.59677C16.2994 8.59677 16.2847 8.58825 16.2775 8.5815Z" fill="white" stroke="white" stroke-linecap="round"/>
    </g>
    <g id="whatsapp">
        <path fill-rule="evenodd" clip-rule="evenodd" d="M16 31C23.732 31 30 24.732 30 17C30 9.26801 23.732 3 16 3C8.26801 3 2 9.26801 2 17C2 19.5109 2.661 21.8674 3.81847 23.905L2 31L9.31486 29.3038C11.3014 30.3854 13.5789 31 16 31ZM16 28.8462C22.5425 28.8462 27.8462 23.5425 27.8462 17C27.8462 10.4576 22.5425 5.15385 16 5.15385C9.45755 5.15385 4.15385 10.4576 4.15385 17C4.15385 19.5261 4.9445 21.8675 6.29184 23.7902L5.23077 27.7692L9.27993 26.7569C11.1894 28.0746 13.5046 28.8462 16 28.8462Z" fill="#BFC8D0"/>
        <path d="M28 16C28 22.6274 22.6274 28 16 28C13.4722 28 11.1269 27.2184 9.19266 25.8837L5.09091 26.9091L6.16576 22.8784C4.80092 20.9307 4 18.5589 4 16C4 9.37258 9.37258 4 16 4C22.6274 4 28 9.37258 28 16Z" fill="#5BD066"/>
        <path fill-rule="evenodd" clip-rule="evenodd" d="M16 30C23.732 30 30 23.732 30 16C30 8.26801 23.732 2 16 2C8.26801 2 2 8.26801 2 16C2 18.5109 2.661 20.8674 3.81847 22.905L2 30L9.31486 28.3038C11.3014 29.3854 13.5789 30 16 30ZM16 27.8462C22.5425 27.8462 27.8462 22.5425 27.8462 16C27.8462 9.45755 22.5425 4.15385 16 4.15385C9.45755 4.15385 4.15385 9.45755 4.15385 16C4.15385 18.5261 4.9445 20.8675 6.29184 22.7902L5.23077 26.7692L9.27993 25.7569C11.1894 27.0746 13.5046 27.8462 16 27.8462Z" fill="white"/>
        <path d="M12.5 9.49989C12.1672 8.83131 11.6565 8.8905 11.1407 8.8905C10.2188 8.8905 8.78125 9.99478 8.78125 12.05C8.78125 13.7343 9.52345 15.578 12.0244 18.3361C14.438 20.9979 17.6094 22.3748 20.2422 22.3279C22.875 22.2811 23.4167 20.0154 23.4167 19.2503C23.4167 18.9112 23.2062 18.742 23.0613 18.696C22.1641 18.2654 20.5093 17.4631 20.1328 17.3124C19.7563 17.1617 19.5597 17.3656 19.4375 17.4765C19.0961 17.8018 18.4193 18.7608 18.1875 18.9765C17.9558 19.1922 17.6103 19.083 17.4665 19.0015C16.9374 18.7892 15.5029 18.1511 14.3595 17.0426C12.9453 15.6718 12.8623 15.2001 12.5959 14.7803C12.3828 14.4444 12.5392 14.2384 12.6172 14.1483C12.9219 13.7968 13.3426 13.254 13.5313 12.9843C13.7199 12.7145 13.5702 12.305 13.4803 12.05C13.0938 10.953 12.7663 10.0347 12.5 9.49989Z" fill="white"/>
        <defs>
<!--            <linearGradient id="paint0_linear_87_7264" x1="26.5" y1="7" x2="4" y2="28" gradientUnits="userSpaceOnUse">-->
<!--                <stop stop-color="#5BD066"/>-->
<!--                <stop offset="1" stop-color="#27B43E"/>-->
<!--            </linearGradient>-->
        </defs>
    </g>
    <g id="en">
        <path fill="#00247D" d="M0 9.059V13h5.628zM4.664 31H13v-5.837zM23 25.164V31h8.335zM0 23v3.941L5.63 23zM31.337 5H23v5.837zM36 26.942V23h-5.631zM36 13V9.059L30.371 13zM13 5H4.664L13 10.837z"/>
        <path fill="#CF1B2B" d="M25.14 23l9.712 6.801a3.977 3.977 0 0 0 .99-1.749L28.627 23H25.14zM13 23h-2.141l-9.711 6.8c.521.53 1.189.909 1.938 1.085L13 23.943V23zm10-10h2.141l9.711-6.8a3.988 3.988 0 0 0-1.937-1.085L23 12.057V13zm-12.141 0L1.148 6.2a3.994 3.994 0 0 0-.991 1.749L7.372 13h3.487z" />
        <path fill="#EEE" d="M36 21H21v10h2v-5.836L31.335 31H32a3.99 3.99 0 0 0 2.852-1.199L25.14 23h3.487l7.215 5.052c.093-.337.158-.686.158-1.052v-.058L30.369 23H36v-2zM0 21v2h5.63L0 26.941V27c0 1.091.439 2.078 1.148 2.8l9.711-6.8H13v.943l-9.914 6.941c.294.07.598.116.914.116h.664L13 25.163V31h2V21H0zM36 9a3.983 3.983 0 0 0-1.148-2.8L25.141 13H23v-.943l9.915-6.942A4.001 4.001 0 0 0 32 5h-.663L23 10.837V5h-2v10h15v-2h-5.629L36 9.059V9zM13 5v5.837L4.664 5H4a3.985 3.985 0 0 0-2.852 1.2l9.711 6.8H7.372L.157 7.949A3.968 3.968 0 0 0 0 9v.059L5.628 13H0v2h15V5h-2z"/>
        <path fill="#CF1B2B" d="M21 15V5h-6v10H0v6h15v10h6V21h15v-6z"/>
    </g>
    <g id="ru">
        <path fill="#CE2028" d="M36 27a4 4 0 0 1-4 4H4a4 4 0 0 1-4-4v-4h36v4z"/>
        <path fill="#22408C" d="M0 13h36v10H0z">

        </path><path fill="#EEE" d="M32 5H4a4 4 0 0 0-4 4v4h36V9a4 4 0 0 0-4-4z"/>
    </g>
    <g id="am">
        <path fill="#D90012" d="M32 5H4a4 4 0 0 0-4 4v4h36V9a4 4 0 0 0-4-4z"/>
        <path fill="#F2A800" d="M4 31h28a4 4 0 0 0 4-4v-4H0v4a4 4 0 0 0 4 4z"/>
        <path fill="#0033A0" d="M0 13h36v10H0z"/>
    </g>

    <g id="telegram">
        <path d="M128,0 C57.307,0 0,57.307 0,128 L0,128 C0,198.693 57.307,256 128,256 L128,256 C198.693,256 256,198.693 256,128 L256,128 C256,57.307 198.693,0 128,0 L128,0 Z" fill="#40B3E0">
        </path>
        <path d="M190.2826,73.6308 L167.4206,188.8978 C167.4206,188.8978 164.2236,196.8918 155.4306,193.0548 L102.6726,152.6068 L83.4886,143.3348 L51.1946,132.4628 C51.1946,132.4628 46.2386,130.7048 45.7586,126.8678 C45.2796,123.0308 51.3546,120.9528 51.3546,120.9528 L179.7306,70.5928 C179.7306,70.5928 190.2826,65.9568 190.2826,73.6308" fill="#FFFFFF">
        </path>
        <path d="M98.6178,187.6035 C98.6178,187.6035 97.0778,187.4595 95.1588,181.3835 C93.2408,175.3085 83.4888,143.3345 83.4888,143.3345 L161.0258,94.0945 C161.0258,94.0945 165.5028,91.3765 165.3428,94.0945 C165.3428,94.0945 166.1418,94.5735 163.7438,96.8115 C161.3458,99.0505 102.8328,151.6475 102.8328,151.6475" fill="#D2E5F1">
        </path>
        <path d="M122.9015,168.1154 L102.0335,187.1414 C102.0335,187.1414 100.4025,188.3794 98.6175,187.6034 L102.6135,152.2624" fill="#B5CFE4">
        </path>
    </g>

    <g id="top">
        <g clip-path="url(#clip0_20_2005)">
            <rect width="30" height="30" fill="transparent" fill-opacity="0.3"/>
            <path d="M13.8072 11.2806V22H16.1928V11.2806L21.3134 16.0812L23 14.5L15 7L7 14.5L8.6866 16.0812L13.8072 11.2806Z" fill="white"/>
        </g>
        <defs>
            <clipPath id="clip0_20_2005">
                <rect width="30" height="30" fill="white"/>
            </clipPath>
        </defs>
    </g>
    <g id="phone">
        <path class="st0" d="M94.811,21.696c-35.18,22.816-42.091,94.135-28.809,152.262c10.344,45.266,32.336,105.987,69.42,163.165
		c34.886,53.79,83.557,102.022,120.669,129.928c47.657,35.832,115.594,58.608,150.774,35.792
		c17.789-11.537,44.218-43.058,45.424-48.714c0,0-15.498-23.896-18.899-29.14l-51.972-80.135
		c-3.862-5.955-28.082-0.512-40.386,6.457c-16.597,9.404-31.882,34.636-31.882,34.636c-11.38,6.575-20.912,0.024-40.828-9.142
		c-24.477-11.262-51.997-46.254-73.9-77.947c-20.005-32.923-40.732-72.322-41.032-99.264c-0.247-21.922-2.341-33.296,8.304-41.006
		c0,0,29.272-3.666,44.627-14.984c11.381-8.392,26.228-28.286,22.366-34.242l-51.972-80.134c-3.401-5.244-18.899-29.14-18.899-29.14
		C152.159-1.117,112.6,10.159,94.811,21.696z"/>
    </g>
    <g id="checked">
        <path d="M509.313,67.45c-4.16-4.16-10.88-4.267-15.04-0.107L134.06,422.33l-115.2-121.6c-3.733-4.48-10.453-5.12-15.04-1.387
			c-4.48,3.733-5.12,10.453-1.387,15.04c0.32,0.32,0.533,0.64,0.853,0.96l122.667,129.493c1.92,2.133,4.693,3.307,7.573,3.307h0.213
			c2.773,0,5.44-1.067,7.467-3.093l368-362.667C513.473,78.33,513.473,71.61,509.313,67.45z"/>
    </g>
</svg>
