<svg width="150" height="80" viewBox="0 0 150 80" fill="none" xmlns="http://www.w3.org/2000/svg">
<path d="M27.8138 30.0181C30.3064 30.0181 32.3552 30.5244 33.9602 31.5371C35.5653 32.5535 36.3867 34.0573 36.4245 36.0485V36.3899H30.5613V36.2761C30.5613 35.7072 30.3536 35.2331 29.9382 34.8538C29.5227 34.4745 28.8902 34.2849 28.0404 34.2849C27.2096 34.2849 26.5732 34.4082 26.1314 34.6547C25.6857 34.9012 25.4629 35.2046 25.4629 35.5649C25.4629 36.077 25.765 36.4562 26.3693 36.7028C26.9735 36.9493 27.946 37.2053 29.2867 37.4708C30.854 37.7932 32.1437 38.1288 33.1558 38.4778C34.1642 38.8305 35.046 39.4051 35.8013 40.2016C36.5567 40.998 36.9438 42.079 36.9626 43.4443C36.9626 45.7579 36.1847 47.4741 34.6287 48.593C33.069 49.7118 30.9862 50.2712 28.3803 50.2712C25.3402 50.2712 22.976 49.7592 21.2879 48.7352C19.596 47.7112 18.75 45.9001 18.75 43.3021H24.6698C24.6698 44.2882 24.9247 44.9463 25.4346 45.2762C25.9444 45.61 26.7375 45.7769 27.8138 45.7769C28.6069 45.7769 29.264 45.6915 29.7852 45.5209C30.3026 45.3502 30.5613 44.9994 30.5613 44.4684C30.5613 43.9943 30.2743 43.6378 29.7002 43.3988C29.1224 43.1637 28.1821 42.9134 26.8791 42.6479C25.293 42.3065 23.9806 41.95 22.942 41.5783C21.9035 41.2104 20.9971 40.5998 20.2229 39.7464C19.4487 38.8931 19.0616 37.7363 19.0616 36.2761C19.0616 34.1332 19.8886 32.5535 21.5428 31.5371C23.1932 30.5244 25.2835 30.0181 27.8138 30.0181ZM59.7639 49.9299H53.1359L52.3145 47.1707H45.4883L44.6669 49.9299H38.2656L45.375 30.3594H52.6544L59.7639 49.9299ZM48.8589 35.821L46.7912 42.7901H51.0116L48.9722 35.821H48.8589ZM80.605 36.3614C80.605 37.5561 80.2859 38.6371 79.6476 39.6042C79.0056 40.5713 78.0709 41.2825 76.8435 41.7376L81.1715 49.9299H74.1527L70.6914 42.7901H68.3745V49.9299H62.1148V30.3594H74.0394C75.4367 30.3594 76.6301 30.6287 77.6196 31.1673C78.6129 31.7096 79.3587 32.4397 79.8572 33.3576C80.3558 34.2792 80.605 35.2805 80.605 36.3614ZM74.232 36.6174C74.232 36.1054 74.0639 35.6787 73.7278 35.3374C73.3879 34.996 72.9725 34.8254 72.4815 34.8254H68.3745V38.4379H72.4815C72.9725 38.4379 73.3879 38.2616 73.7278 37.9088C74.0639 37.5599 74.232 37.1294 74.232 36.6174ZM107.088 49.9299H100.885V42.8754C100.885 42.0031 100.919 41.1061 100.987 40.1845C101.052 39.2666 101.121 38.4948 101.197 37.869C101.272 37.2432 101.32 36.845 101.339 36.6743H101.225L97.628 49.9299H92.7279L89.1024 36.7028H88.9891C89.0079 36.8734 89.0608 37.266 89.1477 37.8804C89.2308 38.4986 89.3101 39.2666 89.3856 40.1845C89.4611 41.1061 89.4989 42.0031 89.4989 42.8754V49.9299H83.749V30.3594H92.5863L95.532 41.6523H95.6453L98.5627 30.3594H107.088V49.9299ZM110.884 49.9299V30.3594H127.737V35.0529H117.144V37.7552H126.207V42.2496H117.144V45.2364H127.935V49.9299H110.884ZM139.775 30.3594C146.592 30.3594 150 33.6212 150 40.1447C150 46.6682 146.592 49.9299 139.775 49.9299H131.334V30.3594H139.775ZM137.594 35.0529V45.2364H139.662C142.286 45.2364 143.599 43.8236 143.599 40.998V39.2913C143.599 36.4657 142.286 35.0529 139.662 35.0529H137.594Z" fill="#E5B80B"/>
<path d="M24.0277 0L0 39.9351L23.9138 79.9394L71.8314 80L87.9807 53.1629H75.7431L65.7323 69.8006L30.0368 69.7545L12.228 39.9524L30.1267 10.2052L65.8282 10.2571L75.6599 26.7122H87.876L71.9542 0.0692285L24.0277 0Z" fill="#E5B80B"/>
</svg>
