<svg width="333" height="177" viewBox="0 0 333 177" fill="none" xmlns="http://www.w3.org/2000/svg">
<path d="M61.7467 66.415C67.2802 66.415 71.8285 67.5353 75.3918 69.7758C78.955 72.0247 80.7785 75.3518 80.8623 79.7573V80.5126H67.8461V80.2608C67.8461 79.0021 67.385 77.9532 66.4627 77.114C65.5405 76.2749 64.1362 75.8553 62.2498 75.8553C60.4053 75.8553 58.9926 76.1281 58.0116 76.6735C57.0223 77.2189 56.5276 77.8903 56.5276 78.6874C56.5276 79.8203 57.1984 80.6594 58.5398 81.2049C59.8813 81.7503 62.0402 82.3167 65.0165 82.9041C68.4959 83.6174 71.359 84.36 73.606 85.132C75.8445 85.9124 77.8022 87.1837 79.479 88.9459C81.1558 90.7081 82.0151 93.0997 82.0571 96.1206C82.0571 101.239 80.33 105.036 76.8757 107.512C73.4131 109.987 68.7893 111.225 63.0043 111.225C56.2552 111.225 51.0067 110.092 47.2591 107.827C43.503 105.561 41.625 101.554 41.625 95.8059H54.767C54.767 97.9877 55.3329 99.4436 56.4648 100.174C57.5966 100.912 59.3573 101.281 61.7467 101.281C63.5074 101.281 64.9662 101.093 66.1232 100.715C67.2718 100.337 67.8461 99.5611 67.8461 98.3863C67.8461 97.3373 67.2089 96.5486 65.9345 96.0199C64.6518 95.4996 62.5642 94.9458 59.6717 94.3584C56.1504 93.6032 53.2369 92.8144 50.9313 91.992C48.6257 91.1781 46.6135 89.827 44.8948 87.939C43.176 86.0509 42.3167 83.4915 42.3167 80.2608C42.3167 75.5197 44.1528 72.0247 47.825 69.7758C51.4888 67.5353 56.1294 66.415 61.7467 66.415ZM132.676 110.47H117.962L116.138 104.365H100.984L99.1605 110.47H84.9496L100.733 67.1702H116.893L132.676 110.47ZM108.467 79.2539L103.877 94.6731H113.246L108.718 79.2539H108.467ZM178.943 80.4496C178.943 83.0929 178.235 85.4845 176.818 87.6243C175.392 89.7641 173.317 91.3375 170.593 92.3445L180.201 110.47H164.619L156.935 94.6731H151.791V110.47H137.895V67.1702H164.367C167.47 67.1702 170.119 67.766 172.316 68.9576C174.521 70.1576 176.176 71.7729 177.283 73.8036C178.39 75.8428 178.943 78.0581 178.943 80.4496ZM164.795 81.0161C164.795 79.8832 164.422 78.9392 163.676 78.184C162.921 77.4287 161.999 77.0511 160.909 77.0511H151.791V85.0439H160.909C161.999 85.0439 162.921 84.6537 163.676 83.8733C164.422 83.1013 164.795 82.1489 164.795 81.0161ZM237.736 110.47H223.965V94.8619C223.965 92.9319 224.041 90.9473 224.192 88.9082C224.334 86.8775 224.489 85.1698 224.657 83.7852C224.825 82.4006 224.93 81.5195 224.972 81.1419H224.72L216.734 110.47H205.856L197.807 81.2049H197.556C197.598 81.5825 197.715 82.451 197.908 83.8104C198.092 85.1782 198.268 86.8775 198.436 88.9082C198.604 90.9473 198.688 92.9319 198.688 94.8619V110.47H185.923V67.1702H205.542L212.081 92.1556H212.333L218.809 67.1702H237.736V110.47ZM246.162 110.47V67.1702H283.576V77.5546H260.059V83.5335H280.18V93.4773H260.059V100.086H284.016V110.47H246.162ZM310.3 67.1702C325.433 67.1702 333 74.3868 333 88.8201C333 103.253 325.433 110.47 310.3 110.47H291.562V67.1702H310.3ZM305.458 77.5546V100.086H310.049C315.876 100.086 318.789 96.9597 318.789 90.7081V86.932C318.789 80.6804 315.876 77.5546 310.049 77.5546H305.458Z" fill="#E5B80B"/>
<path d="M53.3414 0L0 88.3564L53.0887 176.866L159.466 177L195.317 117.623H168.15L145.926 154.434L66.6817 154.332L27.1462 88.3947L66.8813 22.5789L146.139 22.6938L167.965 59.1007H195.085L159.738 0.153168L53.3414 0Z" fill="#E5B80B"/>
</svg>
