<svg width="20" height="15" viewBox="0 0 26 25" fill="none" xmlns="http://www.w3.org/2000/svg">
<path fill-rule="evenodd" clip-rule="evenodd" d="M22.5138 6.0751H3.512L13.0124 13.6217L22.5138 6.0751ZM0.345215 6.0751C0.347737 5.27529 0.682189 4.50893 1.27553 3.94338C1.86887 3.37783 2.67289 3.05904 3.512 3.05664L22.5138 3.05664C23.3529 3.05904 24.1569 3.37783 24.7502 3.94338C25.3436 4.50893 25.678 5.27529 25.6806 6.0751V18.1489C25.678 18.9487 25.3436 19.7151 24.7502 20.2806C24.1569 20.8462 23.3529 21.165 22.5138 21.1674H3.512C2.67289 21.165 1.86887 20.8462 1.27553 20.2806C0.682189 19.7151 0.347737 18.9487 0.345215 18.1489L0.345215 6.0751Z" fill="white"/>
</svg>
