<svg width="299" height="148" viewBox="0 0 299 148" fill="none" xmlns="http://www.w3.org/2000/svg">
<path d="M51.267 53.8182C56.3206 53.8182 60.4746 54.8397 63.7289 56.8828C66.9831 58.9336 68.6485 61.9676 68.7251 65.985V66.6737H56.8375V66.4441C56.8375 65.2963 56.4163 64.3398 55.5741 63.5746C54.7318 62.8094 53.4492 62.4268 51.7264 62.4268C50.0418 62.4268 48.7516 62.6755 47.8557 63.1728C46.9522 63.6702 46.5004 64.2824 46.5004 65.0093C46.5004 66.0424 47.113 66.8076 48.3381 67.3049C49.5633 67.8023 51.535 68.3188 54.2532 68.8545C57.4309 69.5049 60.0458 70.1821 62.0979 70.8861C64.1423 71.5977 65.9303 72.757 67.4617 74.364C68.9931 75.9709 69.7779 78.1517 69.8162 80.9065C69.8162 85.5742 68.2389 89.0368 65.0842 91.2941C61.9218 93.5515 57.6989 94.6802 52.4155 94.6802C46.2516 94.6802 41.4583 93.6471 38.0356 91.5811C34.6052 89.515 32.89 85.8612 32.89 80.6195H44.8925C44.8925 82.609 45.4093 83.9367 46.443 84.6024C47.4767 85.2758 49.0847 85.6125 51.267 85.6125C52.875 85.6125 54.2073 85.4403 55.264 85.096C56.313 84.7516 56.8375 84.0438 56.8375 82.9725C56.8375 82.016 56.2556 81.2967 55.0917 80.8146C53.9201 80.3402 52.0135 79.8352 49.3718 79.2995C46.1559 78.6109 43.495 77.8916 41.3893 77.1417C39.2837 76.3994 37.446 75.1674 35.8763 73.4457C34.3066 71.724 33.5217 69.3901 33.5217 66.4441C33.5217 62.1207 35.1986 58.9336 38.5524 56.8828C41.8985 54.8397 46.1367 53.8182 51.267 53.8182ZM116.046 93.9915H102.608L100.942 88.4246H87.1021L85.4366 93.9915H72.4579L86.8723 54.5069H101.631L116.046 93.9915ZM93.936 65.5258L89.7437 79.5865H98.3005L94.1657 65.5258H93.936ZM158.301 66.6163C158.301 69.0267 157.654 71.2075 156.36 73.1588C155.059 75.11 153.163 76.5448 150.675 77.463L159.45 93.9915H145.219L138.202 79.5865H133.504V93.9915H120.812V54.5069H144.99C147.823 54.5069 150.242 55.0502 152.248 56.1368C154.262 57.231 155.774 58.704 156.785 60.5558C157.796 62.4153 158.301 64.4354 158.301 66.6163ZM145.38 67.1328C145.38 66.0997 145.039 65.2389 144.358 64.5502C143.669 63.8615 142.826 63.5172 141.831 63.5172H133.504V70.8058H141.831C142.826 70.8058 143.669 70.4499 144.358 69.7383C145.039 69.0343 145.38 68.1658 145.38 67.1328ZM211.997 93.9915H199.42V79.7587C199.42 77.9987 199.489 76.189 199.627 74.3295C199.757 72.4777 199.898 70.9205 200.052 69.6579C200.205 68.3954 200.3 67.5919 200.339 67.2476H200.109L192.816 93.9915H182.881L175.53 67.3049H175.3C175.338 67.6493 175.446 68.4413 175.622 69.6809C175.79 70.9282 175.951 72.4777 176.104 74.3295C176.257 76.189 176.334 77.9987 176.334 79.7587V93.9915H164.676V54.5069H182.593L188.566 77.2909H188.796L194.711 54.5069H211.997V93.9915ZM219.692 93.9915V54.5069H253.862V63.9763H232.383V69.4284H250.76V78.4961H232.383V84.5221H254.264V93.9915H219.692ZM278.268 54.5069C292.09 54.5069 299 61.0876 299 74.2492C299 87.4107 292.09 93.9915 278.268 93.9915H261.155V54.5069H278.268ZM273.847 63.9763V84.5221H278.039C283.36 84.5221 286.021 81.6717 286.021 75.9709V72.5275C286.021 66.8267 283.36 63.9763 278.039 63.9763H273.847Z" fill="#E5B80B"/>
<path d="M42.9692 0L0 73.88L42.7656 147.888L128.458 148L155.995 100.66H134.11L117.55 129.131L53.7155 129.046L21.8676 73.912L53.8762 18.8795L117.722 18.9756L133.816 46.8417H155.662L128.677 0.128057L42.9692 0Z" fill="#E5B80B"/>
</svg>
