<svg width="16" height="16" viewBox="0 0 26 25" fill="none" xmlns="http://www.w3.org/2000/svg">
<path d="M15.0669 17.2491L17.7854 14.8766C17.8745 14.7947 17.9817 14.7329 18.0992 14.6955C18.2166 14.6582 18.3413 14.6464 18.4642 14.6609L18.9167 14.8766L25.2503 17.6794C25.7029 17.8951 25.7029 18.1107 25.7029 18.5421C25.6885 19.2711 25.5214 19.99 25.2112 20.6566C24.9011 21.3231 24.4542 21.9238 23.8969 22.4233C23.2676 23.0005 22.5224 23.4506 21.706 23.7464C20.8896 24.0422 20.0189 24.1777 19.1462 24.1446C16.9386 24.1321 14.7665 23.6143 12.8126 22.6349C10.5091 21.471 8.37674 20.0227 6.47057 18.3274C5.2114 16.833 4.07691 15.2468 3.07751 13.5836C2.17975 12.0682 1.42296 10.4809 0.81582 8.83969C0.442169 7.5052 0.289479 6.12328 0.363271 4.74387C0.512246 3.53142 1.06775 2.39716 1.94719 1.50973C3.15663 0.553494 4.67307 0.0207117 6.24429 0C6.41934 0.00307898 6.59146 0.0434086 6.74806 0.11804C6.90465 0.192672 7.04177 0.299718 7.14939 0.431353L10.5424 6.46827C10.5662 6.63182 10.6457 6.7834 10.7687 6.89962C10.784 7.01673 10.7716 7.1356 10.7324 7.24755C10.6933 7.35949 10.6284 7.46169 10.5424 7.54665L7.60194 10.1338C7.48891 10.2929 7.42849 10.4807 7.42849 10.6729C7.42849 10.8652 7.48891 11.053 7.60194 11.2121C8.37751 12.4495 9.28724 13.6057 10.3162 14.6619C11.4191 15.7115 12.6319 16.6506 13.9355 17.4647C14.3859 17.6804 14.8406 17.6804 15.0669 17.2491Z" fill="white"/>
</svg>
