<svg width="400" height="249" viewBox="0 0 400 249" fill="none" xmlns="http://www.w3.org/2000/svg">
<path d="M400 0H0V249H400V0Z" fill="#083327"/>
<path d="M83.6973 100.636C89.6806 100.636 94.5987 101.844 98.4515 104.26C102.304 106.685 104.276 110.273 104.367 115.023V115.837H90.2925V115.566C90.2925 114.208 89.7939 113.077 88.7967 112.173C87.7995 111.268 86.281 110.815 84.2413 110.815C82.2469 110.815 80.7193 111.109 79.6586 111.698C78.5889 112.286 78.054 113.01 78.054 113.869C78.054 115.091 78.7793 115.995 80.2298 116.584C81.6803 117.172 84.0146 117.782 87.2329 118.416C90.9951 119.185 94.091 119.986 96.5206 120.818C98.9411 121.659 101.058 123.03 102.871 124.93C104.684 126.83 105.613 129.409 105.659 132.666C105.659 138.186 103.791 142.28 100.056 144.949C96.3121 147.618 91.3124 148.953 85.0572 148.953C77.7594 148.953 72.0844 147.731 68.0321 145.288C63.9707 142.845 61.94 138.525 61.94 132.327H76.1503C76.1503 134.68 76.7622 136.249 77.986 137.037C79.2099 137.833 81.1137 138.231 83.6973 138.231C85.6011 138.231 87.1785 138.027 88.4296 137.62C89.6715 137.213 90.2925 136.376 90.2925 135.109C90.2925 133.978 89.6036 133.128 88.2256 132.558C86.8386 131.997 84.5812 131.4 81.4536 130.766C77.6461 129.952 74.4958 129.102 72.0028 128.215C69.5097 127.337 67.334 125.88 65.4756 123.845C63.6171 121.809 62.6879 119.049 62.6879 115.566C62.6879 110.454 64.6733 106.685 68.644 104.26C72.6056 101.844 77.6234 100.636 83.6973 100.636ZM160.392 148.139H144.482L142.51 141.556H126.124L124.152 148.139H108.786L125.852 101.451H143.326L160.392 148.139ZM134.215 114.48L129.252 131.106H139.383L134.487 114.48H134.215ZM210.42 115.769C210.42 118.619 209.654 121.198 208.122 123.505C206.581 125.813 204.337 127.509 201.391 128.595L211.78 148.139H194.932L186.623 131.106H181.061V148.139H166.035V101.451H194.66C198.014 101.451 200.879 102.093 203.254 103.378C205.638 104.672 207.429 106.414 208.625 108.603C209.822 110.802 210.42 113.191 210.42 115.769ZM195.122 116.38C195.122 115.158 194.719 114.141 193.912 113.326C193.096 112.512 192.099 112.105 190.92 112.105H181.061V120.723H190.92C192.099 120.723 193.096 120.302 193.912 119.461C194.719 118.628 195.122 117.601 195.122 116.38ZM273.993 148.139H259.102V131.309C259.102 129.228 259.184 127.088 259.347 124.89C259.501 122.7 259.669 120.859 259.85 119.366C260.032 117.873 260.145 116.923 260.19 116.516H259.918L251.283 148.139H239.521L230.818 116.584H230.546C230.591 116.991 230.718 117.927 230.927 119.393C231.126 120.868 231.316 122.7 231.498 124.89C231.679 127.088 231.77 129.228 231.77 131.309V148.139H217.967V101.451H239.181L246.252 128.391H246.524L253.527 101.451H273.993V148.139ZM283.103 148.139V101.451H323.559V112.648H298.13V119.094H319.887V129.816H298.13V136.942H324.034V148.139H283.103ZM352.455 101.451C368.818 101.451 377 109.232 377 124.795C377 140.357 368.818 148.139 352.455 148.139H332.193V101.451H352.455ZM347.22 112.648V136.942H352.183C358.484 136.942 361.634 133.571 361.634 126.83V122.759C361.634 116.018 358.484 112.648 352.183 112.648H347.22Z" fill="#E5B80B"/>
<path d="M73.8732 37L23 124.358L73.6322 211.868L175.087 212L207.69 156.024H181.779L162.173 189.689L86.5963 189.588L48.8901 124.396L86.7865 59.3238L162.376 59.4373L181.431 92.3872H207.296L175.347 37.1514L73.8732 37Z" fill="#E5B80B"/>
</svg>
