<svg width="404" height="244" viewBox="0 0 404 244" fill="none" xmlns="http://www.w3.org/2000/svg">
<path d="M404 0H0V244H404V0Z" fill="#083327"/>
<path d="M91.8989 98.792C97.7149 98.792 102.495 99.9692 106.241 102.324C109.986 104.687 111.902 108.183 111.99 112.813V113.606H98.3097V113.342C98.3097 112.019 97.8251 110.917 96.8557 110.035C95.8864 109.153 94.4104 108.712 92.4277 108.712C90.489 108.712 89.0042 108.999 87.9732 109.572C86.9334 110.145 86.4134 110.851 86.4134 111.688C86.4134 112.879 87.1184 113.761 88.5283 114.334C89.9383 114.907 92.2074 115.502 95.3356 116.12C98.9927 116.869 102.002 117.65 104.364 118.461C106.716 119.281 108.774 120.617 110.536 122.469C112.299 124.32 113.202 126.834 113.246 130.008C113.246 135.387 111.431 139.377 107.8 141.979C104.161 144.58 99.3011 145.881 93.2208 145.881C86.127 145.881 80.6107 144.69 76.6717 142.309C72.7239 139.928 70.75 135.718 70.75 129.677H84.5629C84.5629 131.97 85.1577 133.5 86.3473 134.267C87.537 135.043 89.3875 135.431 91.8989 135.431C93.7495 135.431 95.2828 135.233 96.4988 134.836C97.7061 134.439 98.3097 133.623 98.3097 132.389C98.3097 131.287 97.64 130.458 96.3006 129.902C94.9523 129.356 92.7581 128.774 89.718 128.156C86.0169 127.363 82.9547 126.534 80.5314 125.67C78.1081 124.814 75.9932 123.395 74.1867 121.41C72.3802 119.426 71.477 116.737 71.477 113.342C71.477 108.36 73.4068 104.687 77.2665 102.324C81.1174 99.9692 85.9949 98.792 91.8989 98.792ZM166.449 145.087H150.984L149.067 138.672H133.139L131.223 145.087H116.286L132.875 99.5857H149.86L166.449 145.087ZM141.004 112.284L136.18 128.487H146.027L141.269 112.284H141.004ZM215.078 113.54C215.078 116.318 214.334 118.831 212.844 121.08C211.346 123.328 209.165 124.982 206.302 126.04L216.4 145.087H200.023L191.947 128.487H186.54V145.087H171.934V99.5857H199.759C203.019 99.5857 205.804 100.212 208.112 101.464C210.43 102.725 212.17 104.422 213.334 106.556C214.497 108.699 215.078 111.027 215.078 113.54ZM200.208 114.136C200.208 112.945 199.816 111.953 199.032 111.159C198.238 110.366 197.269 109.969 196.124 109.969H186.54V118.368H196.124C197.269 118.368 198.238 117.958 199.032 117.138C199.816 116.327 200.208 115.326 200.208 114.136ZM276.873 145.087H262.399V128.685C262.399 126.657 262.478 124.572 262.637 122.429C262.787 120.295 262.95 118.5 263.126 117.045C263.302 115.59 263.413 114.665 263.457 114.268H263.192L254.799 145.087H243.365L234.905 114.334H234.641C234.685 114.731 234.809 115.643 235.011 117.072C235.205 118.509 235.39 120.295 235.566 122.429C235.743 124.572 235.831 126.657 235.831 128.685V145.087H222.414V99.5857H243.035L249.908 125.842H250.172L256.98 99.5857H276.873V145.087ZM285.729 145.087V99.5857H325.053V110.498H300.335V116.781H321.484V127.23H300.335V134.175H325.516V145.087H285.729ZM353.141 99.5857C369.047 99.5857 377 107.169 377 122.336C377 137.503 369.047 145.087 353.141 145.087H333.446V99.5857H353.141ZM348.052 110.498V134.175H352.877C359.001 134.175 362.064 130.89 362.064 124.32V120.352C362.064 113.783 359.001 110.498 352.877 110.498H348.052Z" fill="#E5B80B"/>
<path d="M83.0645 29L27 121.849L82.7989 214.859L194.606 215L232.288 152.604H203.734L180.375 191.286L97.0859 191.179L55.532 121.889L97.2956 52.727L180.599 52.8477L203.54 91.1059H232.044L194.893 29.161L83.0645 29Z" fill="#E5B80B"/>
</svg>
